<svg width="79" height="27" viewBox="0 0 79 27" fill="none" xmlns="http://www.w3.org/2000/svg">
<path d="M30.3563 10.6489V2.94893H33.7223C34.5583 2.94893 35.2916 3.11026 35.9223 3.43293C36.5529 3.75559 37.0443 4.20293 37.3963 4.77493C37.7483 5.34693 37.9243 6.02159 37.9243 6.79893C37.9243 7.56893 37.7483 8.24359 37.3963 8.82293C37.0443 9.39493 36.5529 9.84226 35.9223 10.1649C35.2916 10.4876 34.5583 10.6489 33.7223 10.6489H30.3563ZM31.7863 9.43893H33.6563C34.2356 9.43893 34.7343 9.32893 35.1523 9.10893C35.5776 8.88893 35.9039 8.58093 36.1313 8.18493C36.3659 7.78893 36.4833 7.32693 36.4833 6.79893C36.4833 6.26359 36.3659 5.80159 36.1313 5.41293C35.9039 5.01693 35.5776 4.70893 35.1523 4.48893C34.7343 4.26893 34.2356 4.15893 33.6563 4.15893H31.7863V9.43893ZM39.4442 10.6489V2.94893H43.0522C43.9762 2.94893 44.6802 3.13226 45.1642 3.49893C45.6482 3.85826 45.8902 4.34226 45.8902 4.95093C45.8902 5.36159 45.7948 5.71359 45.6042 6.00693C45.4135 6.29293 45.1568 6.51659 44.8342 6.67793C44.5188 6.83193 44.1742 6.90893 43.8002 6.90893L43.9982 6.51293C44.4308 6.51293 44.8195 6.59359 45.1642 6.75493C45.5088 6.90893 45.7802 7.13626 45.9782 7.43693C46.1835 7.73759 46.2862 8.11159 46.2862 8.55893C46.2862 9.21893 46.0332 9.73226 45.5272 10.0989C45.0212 10.4656 44.2695 10.6489 43.2722 10.6489H39.4442ZM40.8742 9.52693H43.1842C43.7195 9.52693 44.1302 9.43893 44.4162 9.26293C44.7022 9.08693 44.8452 8.80459 44.8452 8.41593C44.8452 8.03459 44.7022 7.75593 44.4162 7.57993C44.1302 7.39659 43.7195 7.30493 43.1842 7.30493H40.7642V6.19393H42.8982C43.3968 6.19393 43.7782 6.10593 44.0422 5.92993C44.3135 5.75393 44.4492 5.48993 44.4492 5.13793C44.4492 4.77859 44.3135 4.51093 44.0422 4.33493C43.7782 4.15893 43.3968 4.07093 42.8982 4.07093H40.8742V9.52693ZM32.7433 23.7589C32.1419 23.7589 31.5663 23.6746 31.0163 23.5059C30.4663 23.3299 30.0299 23.1063 29.7073 22.8349L30.2023 21.7239C30.5103 21.9659 30.8916 22.1676 31.3463 22.3289C31.8009 22.4903 32.2666 22.5709 32.7433 22.5709C33.1466 22.5709 33.4729 22.5269 33.7223 22.4389C33.9716 22.3509 34.1549 22.2336 34.2723 22.0869C34.3896 21.9329 34.4483 21.7606 34.4483 21.5699C34.4483 21.3353 34.3639 21.1483 34.1953 21.0089C34.0266 20.8623 33.8066 20.7486 33.5353 20.6679C33.2713 20.5799 32.9743 20.4993 32.6443 20.4259C32.3216 20.3526 31.9953 20.2683 31.6653 20.1729C31.3426 20.0703 31.0456 19.9419 30.7743 19.7879C30.5103 19.6266 30.2939 19.4139 30.1253 19.1499C29.9566 18.8859 29.8723 18.5486 29.8723 18.1379C29.8723 17.7199 29.9823 17.3386 30.2023 16.9939C30.4296 16.6419 30.7706 16.3633 31.2253 16.1579C31.6873 15.9453 32.2703 15.8389 32.9743 15.8389C33.4363 15.8389 33.8946 15.8976 34.3493 16.0149C34.8039 16.1323 35.1999 16.3009 35.5373 16.5209L35.0863 17.6319C34.7416 17.4266 34.3859 17.2763 34.0193 17.1809C33.6526 17.0783 33.3006 17.0269 32.9633 17.0269C32.5673 17.0269 32.2446 17.0746 31.9953 17.1699C31.7533 17.2653 31.5736 17.3899 31.4563 17.5439C31.3463 17.6979 31.2913 17.8739 31.2913 18.0719C31.2913 18.3066 31.3719 18.4973 31.5333 18.6439C31.7019 18.7833 31.9183 18.8933 32.1823 18.9739C32.4536 19.0546 32.7543 19.1353 33.0843 19.2159C33.4143 19.2893 33.7406 19.3736 34.0633 19.4689C34.3933 19.5643 34.6903 19.6889 34.9543 19.8429C35.2256 19.9969 35.4419 20.2059 35.6033 20.4699C35.7719 20.7339 35.8563 21.0676 35.8563 21.4709C35.8563 21.8816 35.7426 22.2629 35.5153 22.6149C35.2953 22.9596 34.9543 23.2383 34.4923 23.4509C34.0303 23.6563 33.4473 23.7589 32.7433 23.7589ZM38.7288 23.6489V17.1589H36.1768V15.9489H42.7108V17.1589H40.1588V23.6489H38.7288ZM46.9554 23.7589C45.8994 23.7589 45.0707 23.4619 44.4694 22.8679C43.8754 22.2739 43.5784 21.4159 43.5784 20.2939V15.9489H45.0084V20.2389C45.0084 21.0309 45.177 21.6066 45.5144 21.9659C45.859 22.3253 46.343 22.5049 46.9664 22.5049C47.5897 22.5049 48.07 22.3253 48.4074 21.9659C48.7447 21.6066 48.9134 21.0309 48.9134 20.2389V15.9489H50.3214V20.2939C50.3214 21.4159 50.0207 22.2739 49.4194 22.8679C48.8254 23.4619 48.004 23.7589 46.9554 23.7589ZM52.324 23.6489V15.9489H55.69C56.526 15.9489 57.2594 16.1103 57.89 16.4329C58.5207 16.7556 59.012 17.2029 59.364 17.7749C59.716 18.3469 59.892 19.0216 59.892 19.7989C59.892 20.5689 59.716 21.2436 59.364 21.8229C59.012 22.3949 58.5207 22.8423 57.89 23.1649C57.2594 23.4876 56.526 23.6489 55.69 23.6489H52.324ZM53.754 22.4389H55.624C56.2034 22.4389 56.702 22.3289 57.12 22.1089C57.5454 21.8889 57.8717 21.5809 58.099 21.1849C58.3337 20.7889 58.451 20.3269 58.451 19.7989C58.451 19.2636 58.3337 18.8016 58.099 18.4129C57.8717 18.0169 57.5454 17.7089 57.12 17.4889C56.702 17.2689 56.2034 17.1589 55.624 17.1589H53.754V22.4389ZM61.4119 23.6489V15.9489H62.8419V23.6489H61.4119ZM68.5326 23.7589C67.9313 23.7589 67.3776 23.6599 66.8716 23.4619C66.3656 23.2639 65.9256 22.9889 65.5516 22.6369C65.1776 22.2776 64.888 21.8596 64.6826 21.3829C64.4773 20.8989 64.3746 20.3709 64.3746 19.7989C64.3746 19.2269 64.4773 18.7026 64.6826 18.2259C64.888 17.7419 65.1776 17.3239 65.5516 16.9719C65.9256 16.6126 66.3656 16.3339 66.8716 16.1359C67.3776 15.9379 67.9276 15.8389 68.5216 15.8389C69.123 15.8389 69.673 15.9379 70.1716 16.1359C70.6776 16.3339 71.1176 16.6126 71.4916 16.9719C71.8656 17.3239 72.1553 17.7419 72.3606 18.2259C72.566 18.7026 72.6686 19.2269 72.6686 19.7989C72.6686 20.3709 72.566 20.8989 72.3606 21.3829C72.1553 21.8669 71.8656 22.2849 71.4916 22.6369C71.1176 22.9889 70.6776 23.2639 70.1716 23.4619C69.673 23.6599 69.1266 23.7589 68.5326 23.7589ZM68.5216 22.5049C68.9103 22.5049 69.2696 22.4389 69.5996 22.3069C69.9296 22.1749 70.2156 21.9879 70.4576 21.7459C70.6996 21.4966 70.8866 21.2106 71.0186 20.8879C71.158 20.5579 71.2276 20.1949 71.2276 19.7989C71.2276 19.4029 71.158 19.0436 71.0186 18.7209C70.8866 18.3909 70.6996 18.1049 70.4576 17.8629C70.2156 17.6136 69.9296 17.4229 69.5996 17.2909C69.2696 17.1589 68.9103 17.0929 68.5216 17.0929C68.133 17.0929 67.7736 17.1589 67.4436 17.2909C67.121 17.4229 66.835 17.6136 66.5856 17.8629C66.3436 18.1049 66.153 18.3909 66.0136 18.7209C65.8816 19.0436 65.8156 19.4029 65.8156 19.7989C65.8156 20.1876 65.8816 20.5469 66.0136 20.8769C66.153 21.2069 66.3436 21.4966 66.5856 21.7459C66.8276 21.9879 67.1136 22.1749 67.4436 22.3069C67.7736 22.4389 68.133 22.5049 68.5216 22.5049Z" fill="#1357D2"/>
<path d="M3.84497 22.0892V17.3707" stroke="#1357D2" stroke-width="6" stroke-linecap="round"/>
<path d="M11.7936 22.0892V6.57922" stroke="#1357D2" stroke-width="6" stroke-linecap="round"/>
<path d="M19.8767 22.0892V9.84668" stroke="#1357D2" stroke-width="6" stroke-linecap="round"/>
</svg>
