<svg width="33" height="33" viewBox="0 0 33 33" fill="none" xmlns="http://www.w3.org/2000/svg">
<path d="M29.0644 14.6283C29.3031 14.523 29.5056 14.3499 29.6468 14.1306C29.7881 13.9113 29.862 13.6554 29.8593 13.3945C29.8566 13.1336 29.7775 12.8792 29.6317 12.6629C29.4859 12.4466 29.2799 12.2778 29.0391 12.1774L17.6146 6.9717C17.2673 6.81321 16.89 6.7312 16.5083 6.7312C16.1266 6.7312 15.7493 6.81321 15.402 6.9717L3.97885 12.1721C3.74154 12.2761 3.53967 12.4469 3.39791 12.6639C3.25616 12.8808 3.18066 13.1343 3.18066 13.3935C3.18066 13.6527 3.25616 13.9062 3.39791 14.1231C3.53967 14.3401 3.74154 14.511 3.97885 14.6149L15.402 19.826C15.7493 19.9845 16.1266 20.0665 16.5083 20.0665C16.89 20.0665 17.2673 19.9845 17.6146 19.826L29.0644 14.6283Z" stroke="#6A8CB2" stroke-width="2.66667" stroke-linecap="round" stroke-linejoin="round"/>
<path d="M29.8379 13.3989V21.3989" stroke="#6A8CB2" stroke-width="2.66667" stroke-linecap="round" stroke-linejoin="round"/>
<path d="M8.51074 16.7324V21.3994C8.51074 22.4604 9.35334 23.4779 10.8532 24.2281C12.353 24.9783 14.3872 25.3997 16.5083 25.3997C18.6294 25.3997 20.6636 24.9783 22.1634 24.2281C23.6632 23.4779 24.5058 22.4604 24.5058 21.3994V16.7324" stroke="#6A8CB2" stroke-width="2.66667" stroke-linecap="round" stroke-linejoin="round"/>
</svg>
