<svg width="33" height="33" viewBox="0 0 33 33" fill="none" xmlns="http://www.w3.org/2000/svg">
<path d="M4.52393 4.06592V25.3993C4.52393 26.1065 4.80488 26.7848 5.30497 27.2849C5.80507 27.785 6.48335 28.0659 7.19059 28.0659H28.5239" stroke="#6A8CB2" stroke-width="2.66667" stroke-linecap="round" stroke-linejoin="round"/>
<path d="M9.85742 15.0086C9.85746 14.8321 9.92746 14.6628 10.0521 14.5379L12.7188 11.8712C12.7807 11.8091 12.8543 11.7599 12.9352 11.7263C13.0162 11.6927 13.1031 11.6754 13.1908 11.6754C13.2784 11.6754 13.3653 11.6927 13.4463 11.7263C13.5273 11.7599 13.6008 11.8091 13.6628 11.8712L18.0521 16.2606C18.114 16.3227 18.1876 16.3719 18.2686 16.4055C18.3496 16.4391 18.4364 16.4564 18.5241 16.4564C18.6118 16.4564 18.6986 16.4391 18.7796 16.4055C18.8606 16.3719 18.9342 16.3227 18.9961 16.2606L24.7188 10.5379C24.8119 10.4445 24.9307 10.3808 25.06 10.355C25.1894 10.3291 25.3235 10.3422 25.4454 10.3926C25.5673 10.443 25.6716 10.5284 25.7449 10.6381C25.8182 10.7477 25.8574 10.8767 25.8574 11.0086V21.3992C25.8574 21.7529 25.7169 22.092 25.4669 22.342C25.2169 22.5921 24.8777 22.7326 24.5241 22.7326H11.1908C10.8371 22.7326 10.498 22.5921 10.2479 22.342C9.9979 22.092 9.85742 21.7529 9.85742 21.3992V15.0086Z" stroke="#6A8CB2" stroke-width="2.66667" stroke-linecap="round" stroke-linejoin="round"/>
</svg>
