<svg width="33" height="33" viewBox="0 0 33 33" fill="none" xmlns="http://www.w3.org/2000/svg">
<path d="M27.1805 17.3992C27.1805 24.0659 22.5138 27.3992 16.9672 29.3325C16.6767 29.431 16.3612 29.4262 16.0738 29.3192C10.5138 27.3992 5.84717 24.0659 5.84717 17.3992V8.06587C5.84717 7.71224 5.98764 7.37311 6.23769 7.12306C6.48774 6.87301 6.82688 6.73253 7.1805 6.73253C9.84717 6.73253 13.1805 5.13253 15.5005 3.10587C15.783 2.86453 16.1423 2.73193 16.5138 2.73193C16.8854 2.73193 17.2447 2.86453 17.5272 3.10587C19.8605 5.14587 23.1805 6.73253 25.8472 6.73253C26.2008 6.73253 26.5399 6.87301 26.79 7.12306C27.04 7.37311 27.1805 7.71224 27.1805 8.06587V17.3992Z" stroke="#6A8CB2" stroke-width="2.66667" stroke-linecap="round" stroke-linejoin="round"/>
<path d="M12.5137 16.066L15.1803 18.7326L20.5137 13.3993" stroke="#6A8CB2" stroke-width="2.66667" stroke-linecap="round" stroke-linejoin="round"/>
</svg>
