<svg width="33" height="33" viewBox="0 0 33 33" fill="none" xmlns="http://www.w3.org/2000/svg">
<path d="M13.8468 14.0659L11.1802 17.3993L13.8468 20.7326" stroke="#6A8CB2" stroke-width="2.66667" stroke-linecap="round" stroke-linejoin="round"/>
<path d="M19.1802 14.0659L21.8468 17.3993L19.1802 20.7326" stroke="#6A8CB2" stroke-width="2.66667" stroke-linecap="round" stroke-linejoin="round"/>
<path d="M27.1802 26.7326C27.8874 26.7326 28.5657 26.4516 29.0658 25.9515C29.5659 25.4514 29.8468 24.7732 29.8468 24.0659V10.7326C29.8468 10.0253 29.5659 9.34706 29.0658 8.84697C28.5657 8.34687 27.8874 8.06592 27.1802 8.06592H16.6468C16.2009 8.07029 15.7609 7.96273 15.3672 7.75309C14.9736 7.54345 14.6388 7.23842 14.3935 6.86592L13.3135 5.26592C13.0707 4.89721 12.7401 4.59456 12.3515 4.38511C11.9629 4.17567 11.5283 4.06599 11.0868 4.06592H5.84684C5.1396 4.06592 4.46132 4.34687 3.96122 4.84697C3.46113 5.34706 3.18018 6.02534 3.18018 6.73258L3.18018 24.0659C3.18018 24.7732 3.46113 25.4514 3.96122 25.9515C4.46132 26.4516 5.1396 26.7326 5.84684 26.7326H27.1802Z" stroke="#6A8CB2" stroke-width="2.66667" stroke-linecap="round" stroke-linejoin="round"/>
</svg>
